<svg width="67" height="36" viewBox="0 0 67 36" fill="none" xmlns="http://www.w3.org/2000/svg">
<ellipse cx="18.0168" cy="18" rx="18.0168" ry="18" fill="#FFDDDD"/>
<ellipse cx="48.9832" cy="18" rx="18.0168" ry="18" fill="#DBFFCE"/>
<path fill-rule="evenodd" clip-rule="evenodd" d="M33.5 27.4193C35.1091 24.7249 36.0336 21.5751 36.0336 18.2096C36.0336 14.8441 35.1091 11.6944 33.5 9C31.8909 11.6944 30.9664 14.8441 30.9664 18.2096C30.9664 21.5751 31.8909 24.7249 33.5 27.4193Z" fill="#FEF6DB"/>
<path d="M22.8228 26.0415L24.12 27.3375L27.4824 24.2438L26.0658 22.8285C26.4712 22.1265 26.7955 21.3435 27.0117 20.5065C27.2279 19.6965 27.363 18.8055 27.363 17.8875C27.363 16.5375 27.1198 15.2955 26.6333 14.1345C26.1469 13.0005 25.4983 12.0015 24.6605 11.1375C23.7957 10.3005 22.7958 9.6525 21.6607 9.1665C20.4986 8.6805 19.2555 8.4375 17.9042 8.4375C16.5529 8.4375 15.2828 8.6805 14.1477 9.1665C12.9856 9.6525 11.9857 10.3005 11.1479 11.1375C10.2831 12.0015 9.63448 13.0005 9.14803 14.1345C8.66158 15.2955 8.44537 16.5375 8.44537 17.8875C8.44537 19.2375 8.66158 20.5065 9.14803 21.6405C9.63448 22.8015 10.2831 23.8005 11.1479 24.6375C11.9857 25.5015 12.9856 26.1495 14.1477 26.6355C15.2828 27.1215 16.5529 27.3375 17.9042 27.3375C18.8231 27.3375 19.6879 27.2295 20.5256 27.0135C21.3364 26.7975 22.1201 26.4735 22.8228 26.0415ZM17.9042 22.7475C17.1745 22.7475 16.5259 22.6395 15.9314 22.3965C15.3368 22.1805 14.8233 21.8295 14.3909 21.3975C13.9585 20.9655 13.6072 20.4525 13.391 19.8585C13.1478 19.2645 13.0397 18.6165 13.0397 17.8875C13.0397 17.1855 13.1478 16.5105 13.391 15.9165C13.6072 15.3225 13.9585 14.8095 14.3909 14.3775C14.8233 13.9455 15.3368 13.6215 15.9314 13.3785C16.5259 13.1625 17.1745 13.0275 17.9042 13.0275C18.6069 13.0275 19.2825 13.1625 19.877 13.3785C20.4716 13.6215 20.9851 13.9455 21.4175 14.3775C21.8499 14.8095 22.1742 15.3225 22.4174 15.9165C22.6336 16.5105 22.7687 17.1855 22.7687 17.8875C22.7687 18.4545 22.6877 18.9405 22.5796 19.3185L19.0393 15.7815L15.9043 19.1295L19.3365 22.5585C18.9312 22.6935 18.4447 22.7475 17.9042 22.7475Z" fill="#FF5555"/>
<path d="M55.5593 9.22498H42.9926V28.125H47.5869V20.97H55.5593V16.38H47.5869V13.815H55.5593V9.22498Z" fill="#3EB96F"/>
</svg>
